<svg width="32" height="32" viewBox="0 0 32 32" fill="none" xmlns="http://www.w3.org/2000/svg">
<path d="M25.3332 12.4V6.66663C25.3332 5.93329 24.7332 5.33329 23.9999 5.33329H22.6666C21.9332 5.33329 21.3332 5.93329 21.3332 6.66663V8.79996L16.8932 4.79996C16.3866 4.34663 15.6132 4.34663 15.1066 4.79996L3.95989 14.84C3.50655 15.24 3.78655 16 4.39989 16H6.66655V25.3333C6.66655 26.0666 7.26655 26.6666 7.99989 26.6666H11.9999C12.7332 26.6666 13.3332 26.0666 13.3332 25.3333V18.6666H18.6666V25.3333C18.6666 26.0666 19.2666 26.6666 19.9999 26.6666H23.9999C24.7332 26.6666 25.3332 26.0666 25.3332 25.3333V16H27.5999C28.2132 16 28.5066 15.24 28.0399 14.84L25.3332 12.4ZM13.3332 13.3333C13.3332 11.8666 14.5332 10.6666 15.9999 10.6666C17.4666 10.6666 18.6666 11.8666 18.6666 13.3333H13.3332Z" fill="#F5F5F5"/>
</svg>
